# xmcd CD database file
#
# Track frame offsets:
#	183
#	12930
#	27240
#	36988
#	50273
#	59198
#	71735
#	87168
#	105928
#	121693
#	140638
#	160615
#	185685
#	201903
#	219023
#	237215
#	246640
#	266150
#	281638
#	295898
#
# Disc length: 4150 seconds
#
# Revision: 0
# Processed by: cddbd v1.4b41PL1 Copyright (c) Steve Scherf et al.
# Submitted via: Feurio! 1.60.2ß - http://www.feurio.com
#
DISCID=2c103414
DTITLE=Louisiana Red - Sings The Blues...+
DYEAR=1900
DGENRE=
TTITLE0=Who' Dat?
TTITLE1=Rollin' Stone
TTITLE2=I Am Louisiana Red
TTITLE3=Country Playboy
TTITLE4=You Don't Have To Go
TTITLE5=Mean Ol' Frisco
TTITLE6=Story Of Louisiana Red
TTITLE7=The Same Thing
TTITLE8=Freight Train To Ride
TTITLE9=Where Is My Friend?
TTITLE10=Red's New Dream
TTITLE11=Louisiana Blues
TTITLE12=Standin' By The Airport
TTITLE13=Evil Main Blues
TTITLE14="Let These" Blues
TTITLE15=Little Girl Take Your Time
TTITLE16=Let Me Give You Your Exercise
TTITLE17=My Blues Came Rolling Down
TTITLE18=Some Day
TTITLE19=Early In The Morning
EXTD=recorded in 1965, (4) recorded in 1970
EXTT0=
EXTT1=
EXTT2=
EXTT3=
EXTT4=
EXTT5=
EXTT6=
EXTT7=
EXTT8=
EXTT9=
EXTT10=
EXTT11=
EXTT12=
EXTT13=
EXTT14=
EXTT15=
EXTT16=
EXTT17=
EXTT18=
EXTT19=
PLAYORDER=
